<svg width="39" height="40" viewBox="0 0 39 40" fill="none" xmlns="http://www.w3.org/2000/svg">
<path d="M26.4498 13.057C26.0103 13.0461 25.543 13.2274 25.1771 13.5934L16.8612 21.9171L14.2026 19.2557C13.5543 18.6064 12.58 18.5367 12.0176 19.0986L10.8208 20.2962C10.2597 20.8584 10.3298 21.835 10.978 22.4841L15.8482 27.3584C16.396 27.9082 17.3671 27.8672 17.8754 27.3584L28.402 16.8207C29.0503 16.1716 29.1214 15.1962 28.5592 14.6343L27.3627 13.4354C27.1161 13.1901 26.7916 13.0654 26.4498 13.0571L26.4498 13.057Z" fill="black"/>
<path d="M38.4001 14.3398L36.0784 11.5729L35.3151 8.04271C35.1243 7.21581 34.5837 6.54797 33.7885 6.22986L30.4491 4.86234L28.1274 2.09546C27.5867 1.45938 26.7599 1.10958 25.9329 1.20495L22.4027 1.55479L19.0633 0.187273C18.3 -0.130764 17.4095 -0.0353531 16.7099 0.409898L13.6885 2.38173L10.0947 2.69976C9.26779 2.76337 8.50451 3.27223 8.12286 4.00375L6.3737 7.15228L3.35238 9.1241C2.6527 9.53755 2.20745 10.3326 2.17561 11.1595L2.0802 14.7534L0.331036 17.9019C-0.0824121 18.6334 -0.114216 19.5239 0.267428 20.2554L1.85761 23.4994L1.7622 27.0932C1.7304 27.9201 2.14385 28.7152 2.81176 29.224L5.70586 31.3548L7.29604 34.5988C7.67768 35.3621 8.37736 35.871 9.20426 35.9982L12.7663 36.5388L15.6604 38.6696C16.3282 39.1785 17.2188 39.3057 18.0138 39.0195L21.4168 37.8427L24.9788 38.3834C25.8057 38.5106 26.6326 38.2243 27.2051 37.5882L29.654 34.9486L33.0569 33.7718C33.8521 33.4856 34.4563 32.8495 34.6789 32.0544L35.633 28.5878L38.0819 25.9481C38.6544 25.3438 38.877 24.4851 38.718 23.6582L37.9547 20.0962L38.9088 16.6296C39.1314 15.8345 38.9406 14.9758 38.4 14.3397L38.4001 14.3398ZM19.5084 32.4042C12.4162 32.4042 6.65968 26.6477 6.65968 19.5556C6.65968 12.4634 12.4162 6.70688 19.5084 6.70688C26.6005 6.70688 32.357 12.4634 32.357 19.5556C32.357 26.6477 26.6005 32.4042 19.5084 32.4042Z" fill="black"/>
</svg>
