<svg width="86" height="86" viewBox="0 0 86 86" fill="none" xmlns="http://www.w3.org/2000/svg">
<circle cx="43" cy="43" r="43" fill="#F4F8FB"/>
<g filter="url(#filter0_d_167_73)">
<mask id="mask0_167_73" style="mask-type:alpha" maskUnits="userSpaceOnUse" x="2" y="2" width="83" height="83">
<circle cx="43.0345" cy="43.0345" r="41.0345" fill="#C4C4C4"/>
</mask>
<g mask="url(#mask0_167_73)">
<path d="M43 9C24.2463 9 9 24.2463 9 43C9 61.7537 24.2463 77 43 77C61.7537 77 77 61.7537 77 43C77 24.2463 61.7537 9 43 9ZM43 23.0295C47.9391 23.0295 51.9474 27.0378 51.9474 31.9768C51.9474 36.9159 47.9391 40.9242 43 40.9242C38.0609 40.9242 34.0526 36.9159 34.0526 31.9768C34.0526 27.1092 38.0609 23.0295 43 23.0295ZM27.9684 57.7453C27.9684 51.3747 29.9726 45.7916 34.0529 42.5705C36.4864 44.5747 39.5646 45.8629 43.0003 45.8629C46.4359 45.8629 49.5141 44.6461 51.9476 42.57C56.0279 45.7909 58.0321 51.3741 58.0321 57.7448C58.0321 62.5409 27.9684 62.5409 27.9684 57.7453Z" fill="#04A7F4"/>
</g>
</g>
<defs>
<filter id="filter0_d_167_73" x="5" y="6" width="76" height="76" filterUnits="userSpaceOnUse" color-interpolation-filters="sRGB">
<feFlood flood-opacity="0" result="BackgroundImageFix"/>
<feColorMatrix in="SourceAlpha" type="matrix" values="0 0 0 0 0 0 0 0 0 0 0 0 0 0 0 0 0 0 127 0" result="hardAlpha"/>
<feOffset dy="1"/>
<feGaussianBlur stdDeviation="2"/>
<feComposite in2="hardAlpha" operator="out"/>
<feColorMatrix type="matrix" values="0 0 0 0 0 0 0 0 0 0 0 0 0 0 0 0 0 0 0.25 0"/>
<feBlend mode="normal" in2="BackgroundImageFix" result="effect1_dropShadow_167_73"/>
<feBlend mode="normal" in="SourceGraphic" in2="effect1_dropShadow_167_73" result="shape"/>
</filter>
</defs>
</svg>
