<svg width="26" height="38" viewBox="0 0 26 38" fill="none" xmlns="http://www.w3.org/2000/svg">
<path d="M20.3217 9.46294C18.6767 6.75709 17.3146 3.88827 16.2569 0.901859C16.1123 0.468137 15.7548 0.140254 15.3111 0.0353349C14.8678 -0.0696293 14.4015 0.0627558 14.0789 0.385908C11.3853 3.59122 9.99406 7.69785 10.183 11.887C10.2312 13.4102 9.81633 14.9124 8.99311 16.193C8.51009 13.8917 7.08544 11.9003 5.06698 10.7052C4.65889 10.5018 4.17532 10.5242 3.78774 10.7648C3.40016 11.0054 3.16398 11.4297 3.16281 11.887C3.06996 14.1281 2.51996 16.3262 1.5466 18.3453C0.046145 21.2693 -0.37957 24.6303 0.344069 27.8386C1.06801 31.0462 2.8949 33.8954 5.50416 35.8856C7.64454 37.2932 10.1545 38.0292 12.7136 37.9991C16.5193 38.013 20.1857 36.5632 22.9593 33.9485C26.9222 29.9733 27.0186 22.4618 23.2067 14.8125C22.1869 12.7674 21.2376 11.0892 20.3216 9.46336L20.3217 9.46294Z" fill="black"/>
</svg>
