<svg width="30" height="30" viewBox="0 0 30 30" fill="none" xmlns="http://www.w3.org/2000/svg">
<path d="M29.774 21.2601C29.5753 20.7495 29.2259 20.3111 28.772 20.0025C28.3179 19.694 27.7804 19.53 27.231 19.5322H24.7286L25.7154 10.3399H27.2056C27.9403 10.342 28.6462 10.054 29.1686 9.53936C29.5676 9.15389 29.8391 8.65644 29.9472 8.11329C30.0553 7.57014 29.9949 7.00707 29.774 6.49901C29.5735 5.98957 29.2236 5.55227 28.7702 5.24418C28.3165 4.93585 27.78 4.77094 27.231 4.77116H26.3155L26.5038 3.04332C26.5948 2.05975 26.1566 1.10126 25.3515 0.524403C24.5466 -0.052448 23.4953 -0.161501 22.5883 0.237561C21.6812 0.636624 21.0541 1.48422 20.9397 2.46559L20.6904 4.76624L11.4949 4.76601L11.6832 3.03817C11.7669 2.05796 11.3258 1.10653 10.5225 0.534421C9.71917 -0.0374551 8.67268 -0.145112 7.769 0.251199C6.86533 0.647511 6.23822 1.48906 6.11923 2.46562L5.86993 4.76627L2.79289 4.76604C2.05836 4.76536 1.35295 5.05288 0.829826 5.56661C0.431575 5.95276 0.160455 6.44999 0.0524001 6.99314C-0.0556781 7.53606 0.00426535 8.09891 0.224503 8.60696C0.424536 9.12228 0.777601 9.5643 1.23646 9.87401C1.69556 10.1837 2.23866 10.3463 2.79289 10.34H5.26978L4.28299 19.5323H2.79283C2.05807 19.5303 1.35219 19.8182 0.829762 20.3329C0.305728 20.8557 0.010544 21.564 0.00897464 22.3028C0.00715823 23.0419 0.299148 23.7513 0.820695 24.2765C1.34224 24.8018 2.05132 25.1 2.79289 25.1063H3.6829L3.4999 26.814C3.39091 27.5632 3.59277 28.3242 4.0589 28.9223C4.52481 29.5202 5.21507 29.9036 5.97047 29.9842C6.7261 30.0647 7.48196 29.8356 8.06455 29.3494C8.64696 28.8633 9.00589 28.162 9.05878 27.4066L9.30809 25.106L18.5035 25.1062L18.3205 26.8139C18.2408 27.5485 18.4574 28.2846 18.9231 28.8596C19.3886 29.4349 20.0647 29.8018 20.8022 29.8796C20.9057 29.8846 21.0092 29.8846 21.1125 29.8796C21.801 29.8794 22.4649 29.6249 22.976 29.1654C23.4869 28.7057 23.8088 28.0737 23.8792 27.3914L24.1539 25.1062H27.2055C27.94 25.1068 28.6454 24.8193 29.1686 24.3056C29.568 23.9192 29.8398 23.4209 29.9478 22.8768C30.0559 22.3328 29.9953 21.7688 29.774 21.2601ZM9.91313 19.5322L10.8999 10.3399H20.0849L19.1033 19.5322H9.91313Z" fill="#595959"/>
</svg>
