<svg width="57" height="49" viewBox="0 0 57 49" fill="none" xmlns="http://www.w3.org/2000/svg">
<path fill-rule="evenodd" clip-rule="evenodd" d="M47.5055 27.9573L30.5838 14.7616C29.3443 13.7951 27.6135 13.7951 26.3741 14.7616L9.45233 27.9573C9.17741 28.1714 9.01685 28.5006 9.01685 28.8491V43.9079C9.01685 46.6093 11.2147 48.8072 13.9161 48.8072H43.041C45.7425 48.8072 47.9403 46.6093 47.9403 43.9079V28.8491C47.9403 28.5006 47.7798 28.1714 47.5048 27.9573" fill="black"/>
<path fill-rule="evenodd" clip-rule="evenodd" d="M54.4095 19.7463L47.9415 14.6657V5.73845C47.9415 5.11391 47.4352 4.60754 46.8102 4.60754H42.16C41.5355 4.60754 41.0287 5.11388 41.0287 5.73845V9.23547L31.8681 2.03976C29.8732 0.472669 27.0858 0.472669 25.0905 2.03976L2.54917 19.7461C0.676702 21.2174 0.349839 23.9377 1.82105 25.8106C2.53338 26.7177 3.55679 27.2934 4.70229 27.4309C4.87748 27.452 5.0523 27.4624 5.22595 27.4624C6.18818 27.4624 7.11695 27.1429 7.88541 26.5391L26.4878 11.9259C27.6603 11.0049 29.2983 11.0049 30.4707 11.9259L49.0731 26.5391C49.9806 27.2518 51.1108 27.5683 52.2563 27.4309C53.4017 27.2934 54.4248 26.7178 55.1375 25.8106C56.6088 23.9377 56.2818 21.2173 54.409 19.7461" fill="black"/>
</svg>
