<svg width="38" height="37" viewBox="0 0 38 37" fill="none" xmlns="http://www.w3.org/2000/svg">
<path fill-rule="evenodd" clip-rule="evenodd" d="M8.97921 5.12771C11.789 3.12798 15.253 1.94756 18.9999 1.94756C25.4515 1.94756 31.064 5.44693 33.944 10.6021C33.4568 11.2065 33.1227 11.9169 32.972 12.6755L32.6606 14.2446C32.5223 14.9406 32.1293 15.5636 31.5544 15.9982L31.005 16.4132C29.7842 17.3355 29.0701 18.7552 29.0701 20.2594V20.8521C29.0701 21.2114 28.9726 21.5644 28.7875 21.8755L27.2011 24.5393C26.7206 25.3458 25.4644 25.1052 25.3335 24.182C25.3097 24.0131 25.2706 23.8468 25.217 23.6848L24.1767 20.5401C23.7398 19.2205 22.7461 18.145 21.4443 17.5829L18.442 16.2864C18.1273 16.1508 17.9247 15.8469 17.9247 15.5118V15.4828C17.9247 15.1382 18.1487 14.8321 18.4828 14.7199C19.6236 14.3369 20.3893 13.2911 20.3893 12.1161V11.8654C20.3893 9.89736 18.5327 8.42542 16.5533 8.82418L16.4002 8.85515C15.231 9.09052 14.2818 9.92023 13.9156 11.027L13.0608 13.6109C13.0581 13.6184 13.0541 13.6229 13.0541 13.6229C13.0514 13.6256 13.0474 13.6288 13.0414 13.6311C13.0354 13.6334 13.0303 13.634 13.0266 13.634C13.0243 13.634 13.0203 13.6337 13.0129 13.6298C13.0019 13.6243 12.9948 13.6132 12.9948 13.6008V13.0312C12.9948 11.039 10.5919 9.96711 9.04202 11.2679C8.77483 11.4925 8.36301 11.2845 8.39716 10.9425L8.97921 5.12771ZM6.7835 6.98956C3.82272 9.96857 2.00063 14.027 2.00063 18.5C2.00063 20.4746 2.35553 22.3687 3.00707 24.1246L3.46845 23.3044C3.59534 23.0788 3.6911 22.8375 3.75304 22.5875L4.28506 20.4443C4.45782 19.7476 4.93293 19.1579 5.58713 18.8283C6.58422 18.3263 7.80126 18.5206 8.58142 19.3063L9.61701 20.3495C9.88921 20.624 10.2401 20.8118 10.6238 20.889L11.8305 21.1322C13.4864 21.4657 14.4788 23.1248 13.9606 24.6918C13.7684 25.2728 13.3844 25.7751 12.8688 26.1217L12.2852 26.5136C11.6343 26.9507 11.1927 27.6256 11.0604 28.3845L10.3044 32.726C12.8487 34.2038 15.8225 35.0523 19 35.0523C28.389 35.0523 35.9995 27.6416 35.9995 18.5002C35.9995 16.5149 35.6406 14.611 34.9823 12.847C34.9646 12.9125 34.9488 12.979 34.9354 13.0459L34.6237 14.6149C34.3937 15.7746 33.7385 16.8132 32.7799 17.5373L32.2308 17.9523C31.4985 18.5055 31.07 19.3574 31.07 20.2601V20.8527C31.07 21.5553 30.8791 22.2451 30.5175 22.8528L28.9308 25.5169C27.4961 27.9258 23.7432 27.2076 23.3521 24.4489C23.3441 24.3925 23.331 24.3368 23.3129 24.2827L22.2726 21.138C22.0108 20.3464 21.4145 19.7009 20.6334 19.3635L17.6311 18.0673C16.5932 17.6194 15.9242 16.6179 15.9242 15.5125V15.4834C15.9242 14.3082 16.6899 13.2627 17.8306 12.8797C18.1648 12.7675 18.3891 12.4611 18.3891 12.1168V11.8661C18.3891 11.1319 17.6967 10.583 16.9581 10.7316L16.8054 10.7626C16.3411 10.8561 15.9644 11.1854 15.8187 11.6248L14.9639 14.2088C14.5786 15.3739 13.2105 15.9226 12.0939 15.3602C11.4186 15.0199 10.9947 14.3418 10.9947 13.6014V13.0319C10.9947 12.7059 10.6013 12.5305 10.3479 12.7434C8.714 14.1153 6.19713 12.8451 6.40644 10.7544L6.7835 6.98956ZM8.64073 34.0106C11.6203 35.9014 15.1787 37 19 37C29.493 37 38 28.7172 38 18.5C38 8.28281 29.4933 0 19 0C8.50667 0 0 8.28281 0 18.5C0 24.7737 3.20721 30.3176 8.11231 33.6625L8.06811 33.9155L8.64073 34.0106ZM8.48771 31.5091L9.08837 28.059C9.31103 26.7816 10.0544 25.6465 11.1495 24.9107L11.7331 24.5188C11.8861 24.4161 11.9999 24.2668 12.0569 24.0947C12.2105 23.6302 11.9162 23.1382 11.4254 23.0394L10.2184 22.7962C9.44128 22.6397 8.7305 22.2586 8.17902 21.7027L7.14343 20.6595C6.97736 20.4923 6.71822 20.4512 6.50628 20.5578C6.36699 20.6282 6.26588 20.7534 6.22905 20.9021L5.69703 23.0449C5.59391 23.4615 5.4342 23.8635 5.22259 24.2393L4.03298 26.3552C5.14356 28.3568 6.66494 30.1108 8.48771 31.5091Z" fill="#04A3ED"/>
</svg>
