<svg width="27" height="22" viewBox="0 0 27 22" fill="none" xmlns="http://www.w3.org/2000/svg">
<path d="M13.0084 22C12.8776 22 12.7471 21.973 12.625 21.9197C12.4974 21.8639 9.46534 20.5242 6.39198 18.1119C4.56452 16.6775 3.10251 15.1583 2.04721 13.597C0.688744 11.5873 0 9.50169 0 7.39852C0 5.30056 0.633368 3.48616 1.83156 2.1517C3.0956 0.744061 4.87682 0 6.98279 0C8.4835 0 10.0121 0.676802 11.5258 2.01197C12.1246 2.54017 12.6272 3.0901 13.0089 3.55061C13.3905 3.09031 13.8929 2.53991 14.492 2.01197C16.0057 0.676802 17.5343 0 19.0349 0C21.1407 0 22.9221 0.744061 24.1862 2.1517C25.3844 3.48616 26.0177 5.30033 26.0177 7.39852C26.0177 9.50198 25.329 11.5875 23.9705 13.597C22.9153 15.1583 21.4532 16.6775 19.6257 18.1119C16.5523 20.5242 13.5204 21.864 13.3927 21.9197C13.2702 21.9732 13.1394 22 13.0088 22H13.0084ZM6.98208 1.9131C5.43448 1.9131 4.14556 2.43765 3.25469 3.42979C2.37687 4.4073 1.91268 5.77975 1.91268 7.39818C1.91268 14.2476 11.0099 19.0218 13.0077 19.9871C15.0037 19.0203 24.1034 14.2361 24.1034 7.39818C24.1034 5.77952 23.6394 4.4073 22.7614 3.42979C21.8703 2.43742 20.5816 1.9131 19.034 1.9131C16.4755 1.9131 14.1356 5.18982 13.877 5.56317C13.6797 5.84876 13.3547 6.01889 13.0076 6.01889C12.6607 6.01889 12.3356 5.84853 12.1387 5.56294C11.8801 5.18976 9.53996 1.91305 6.98173 1.91305L6.98208 1.9131Z" fill="#AC0000"/>
</svg>
