<svg width="31" height="36" viewBox="0 0 31 36" fill="none" xmlns="http://www.w3.org/2000/svg">
<path d="M12.9913 0H30.5V4.70252H12.9913C8.5075 4.70252 4.83205 8.37819 4.83205 12.8618V22.3649C4.83205 26.8482 8.50772 30.5242 12.9913 30.5242H30.5V35.2268H12.9913C5.91234 35.2268 0.130127 29.4437 0.130127 22.3655V12.8624C0.130127 5.7837 5.91256 0.00119442 12.9913 0.00119442V0ZM10 15.2614C6.90695 15.2614 6.90695 19.9643 10 19.9643H20.1455L17.4824 22.6268C15.2948 24.8135 18.6206 28.1392 20.8072 25.952L27.4707 19.2882C28.3689 18.3906 28.4435 16.9106 27.4707 15.9374L20.8072 9.27363C18.6206 7.0867 15.2948 10.4125 17.4824 12.5988L20.1455 15.2614H10Z" fill="#04A3ED"/>
</svg>
