<?xml version="1.0" encoding="UTF-8"?>
<svg version="1.1" viewBox="0 0 700 600" fill="#6f6f6f" xmlns="http://www.w3.org/2000/svg">
 <g>
  <path d="m628.36 325.08c-2.9062-6.1562-9.0664-10.078-15.855-10.078h-52.5v-140c0-38.605-31.395-70-70-70h-261.24l58.344 70h202.89v140h-52.5c-6.7891 0-12.949 3.9219-15.855 10.078-2.8711 6.1602-1.9609 13.406 2.4141 18.621l87.5 105c3.3281 4.0273 8.2617 6.3008 13.441 6.3008s10.113-2.2734 13.441-6.3008l87.5-105c4.375-5.2148 5.2852-12.461 2.4141-18.621z"/>
  <path d="m210 385v-140h52.5c6.7891 0 12.949-3.9219 15.855-10.078 2.8711-6.1602 1.9609-13.406-2.4141-18.621l-87.5-105c-3.3281-4.0273-8.2266-6.3008-13.441-6.3008s-10.113 2.2734-13.441 6.3008l-87.5 105c-4.375 5.2148-5.2852 12.461-2.4141 18.621 2.9062 6.1562 9.0664 10.078 15.855 10.078h52.5v140c0 38.605 31.395 70 70 70h261.24l-58.344-70z"/>
 </g>
</svg>
