<svg width="35" height="22" viewBox="0 0 35 22" fill="none" xmlns="http://www.w3.org/2000/svg">
<path d="M21.901 20.6988H9.80191C7.29072 20.6988 5.2363 18.503 5.2363 15.819V6.05924L2.76336 9.67848C2.26866 10.4103 1.31749 10.5731 0.632777 10.0444C-0.0519389 9.51569 -0.204264 8.49904 0.290412 7.7672L4.89427 0.976048C5.31281 0.36618 5.9596 0 6.64459 0C7.17723 0 7.67193 0.203386 8.05227 0.569304L13.2641 8.13311C13.4924 8.78382 13.3021 9.59707 12.7315 10.0444C12.465 10.2478 12.1609 10.3698 11.8183 10.3698C11.3618 10.3698 10.9051 10.1258 10.6006 9.67847L8.27975 6.26264V15.8597C8.27975 16.7544 8.96447 17.4862 9.80151 17.4862H19.6938L21.901 20.6988ZM33.6195 11.9557C32.9348 11.4269 31.9836 11.5898 31.4889 12.3216L28.9778 16.0223V5.89651C28.9778 3.21251 26.9233 1.01671 24.4121 1.01671H12.199L14.4057 4.27003H24.4121C25.2492 4.27003 25.9339 5.00187 25.9339 5.89651V15.6563L23.6509 12.3215C23.1562 11.5897 22.2051 11.4269 21.5203 11.9556C20.9497 12.4029 20.7595 13.1757 20.9877 13.8669L26.1242 21.4307C26.5048 21.7966 27.0374 22 27.5319 22C27.8743 22 28.2166 21.9186 28.5211 21.7561C28.8255 21.5935 29.0917 21.3493 29.2819 21.0648L33.962 14.2331C34.4567 13.501 34.3043 12.4843 33.6196 11.9559L33.6195 11.9557Z" fill="#777676"/>
</svg>
