<svg width="31" height="31" viewBox="0 0 31 31" fill="none" xmlns="http://www.w3.org/2000/svg">
<path d="M24.3642 8.85449C24.3642 10.0796 23.3709 11.0728 22.1458 11.0728C20.9207 11.0728 19.9275 10.0796 19.9275 8.85449C19.9275 7.6294 20.9207 6.63615 22.1458 6.63615C23.3709 6.63615 24.3642 7.6294 24.3642 8.85449Z" fill="#AC0000"/>
<path fill-rule="evenodd" clip-rule="evenodd" d="M25.4691 30.9999V28.7813C25.4411 26.6943 24.5836 24.7041 23.0861 23.2502C21.5885 21.7962 19.5738 20.9978 17.4868 21.0314C18.3609 22.7447 18.819 24.6397 18.8236 26.563V30.9999H25.4691Z" fill="#AC0000"/>
<path fill-rule="evenodd" clip-rule="evenodd" d="M16.6046 30.9999V26.5727C16.5992 23.9342 15.5551 21.4042 13.6983 19.5299C11.8324 17.6603 9.29683 16.6141 6.65545 16.6236H0V26.5728C0 27.7468 0.466586 28.8729 1.29684 29.7032C2.1271 30.5334 3.25318 31 4.42721 31L16.6046 30.9999Z" fill="#AC0000"/>
<path fill-rule="evenodd" clip-rule="evenodd" d="M26.5733 0H4.42794C3.25391 0 2.12784 0.466585 1.29757 1.29684C0.467305 2.1271 0.000732422 3.25318 0.000732422 4.42721V14.3958H6.64622C8.24616 14.3911 9.83109 14.7037 11.3094 15.3158C12.7877 15.9276 14.1298 16.8267 15.2583 17.9608C15.5361 18.2386 15.7977 18.5259 16.0431 18.823H17.719C20.3587 18.8281 22.8887 19.879 24.7549 21.7456C26.6215 23.6119 27.6722 26.1422 27.6776 28.7815V30.8354C28.6283 30.599 29.4726 30.0506 30.0749 29.2778C30.6773 28.5052 31.003 27.5528 31.0003 26.5729V4.42746C31.0003 3.25343 30.5337 2.12735 29.7035 1.29709C28.8732 0.466822 27.7471 0.000249205 26.5731 0.000249205L26.5733 0ZM22.1461 13.2816C20.9719 13.2816 19.846 12.815 19.0158 11.9848C18.1855 11.1545 17.7189 10.0287 17.7189 8.85442C17.7189 7.68021 18.1855 6.55407 19.0158 5.7238C19.846 4.89378 20.9719 4.42721 22.1461 4.42721C23.3203 4.42721 24.4465 4.8938 25.2768 5.7238C26.1068 6.55407 26.5733 7.68014 26.5733 8.85442C26.5707 10.0277 26.1036 11.1523 25.2738 11.9821C24.4441 12.8116 23.3194 13.279 22.1461 13.2816Z" fill="#AC0000"/>
</svg>
