<svg width="40" height="40" viewBox="0 0 40 40" fill="none" xmlns="http://www.w3.org/2000/svg">
<circle cx="20" cy="20" r="20" fill="#04A8F5"/>
<path d="M12.8812 7C9.63821 7 7 9.93656 7 13.5484V24.8457C7 28.2518 9.4731 30.722 12.8812 30.722H20.899C21.9229 33.2286 24.3529 35 27.1873 35C30.9441 35 34 31.8964 34 28.0811C34 25.4342 32.5108 23.1566 30.3542 21.9924V13.5485C30.356 10.1206 27.3298 7.00011 24.0053 7.00011L12.8812 7ZM12.8812 8.97683H24.0051C26.2709 8.97683 28.4114 11.1979 28.4114 13.5483V21.2856C28.0142 21.2124 27.6076 21.1621 27.1911 21.1621C25.6961 21.1621 24.3242 21.6695 23.1991 22.502C21.7842 21.6755 20.202 21.2131 18.5573 21.1775C21.1635 21.0986 23.2638 18.9351 23.2638 16.2701C23.2638 13.5539 21.0853 11.3434 18.4128 11.3434C15.7403 11.3434 13.5657 13.5501 13.5657 16.2663C13.5657 18.9172 15.6417 21.0709 18.2264 21.1738C14.3919 21.2232 11.0456 23.5005 9.49784 26.9303C9.14961 26.3392 8.9467 25.6381 8.9467 24.8454V13.548C8.9467 11.3479 10.4502 8.97658 12.8816 8.97658L12.8812 8.97683ZM18.4126 13.3203C20.0126 13.3203 21.3171 14.6415 21.3171 16.2664C21.3171 17.8913 20.0126 19.2162 18.4126 19.2162C16.8126 19.2162 15.512 17.8913 15.512 16.2664C15.512 14.6414 16.8126 13.3203 18.4126 13.3203ZM18.3518 23.139C19.5468 23.139 20.7088 23.4163 21.7657 23.9383C20.9054 25.0966 20.3743 26.5214 20.3743 28.0811C20.3743 28.3083 20.4212 28.5237 20.4427 28.7452H12.8814C12.1943 28.7452 11.5786 28.589 11.0375 28.3322C12.1548 25.2383 15.0293 23.139 18.3518 23.139L18.3518 23.139ZM27.191 23.139C29.8731 23.139 32.0572 25.355 32.0572 28.0811C32.0572 30.8052 29.8731 33.0232 27.191 33.0232C24.5088 33.0232 22.3248 30.8052 22.3248 28.0811C22.3248 25.357 24.5088 23.139 27.191 23.139ZM26.1797 25.1158V27.0849H24.2369V29.0618H26.1797V31.0309H28.1262V29.0618H30.0649V27.0849H28.1262V25.1158H26.1797Z" fill="white"/>
</svg>
